<svg t="1578551531077" class="icon" viewBox="0 0 1024 1024" version="1.1" xmlns="http://www.w3.org/2000/svg" p-id="12549" width="64" height="64"><path d="M832 96v832c0 53.02-42.98 96-96 96H288c-53.02 0-96-42.98-96-96V96c0-53.02 42.98-96 96-96h448c53.02 0 96 42.98 96 96z m192 116v24a12 12 0 0 1-12 12h-36v12a12 12 0 0 1-12 12h-84V176h84a12 12 0 0 1 12 12v12h36a12 12 0 0 1 12 12z m0 192v24a12 12 0 0 1-12 12h-36v12a12 12 0 0 1-12 12h-84v-96h84a12 12 0 0 1 12 12v12h36a12 12 0 0 1 12 12z m0 192v24a12 12 0 0 1-12 12h-36v12a12 12 0 0 1-12 12h-84v-96h84a12 12 0 0 1 12 12v12h36a12 12 0 0 1 12 12z m0 192v24a12 12 0 0 1-12 12h-36v12a12 12 0 0 1-12 12h-84v-96h84a12 12 0 0 1 12 12v12h36a12 12 0 0 1 12 12zM60 752h84v96H60a12 12 0 0 1-12-12v-12H12a12 12 0 0 1-12-12v-24a12 12 0 0 1 12-12h36v-12a12 12 0 0 1 12-12z m0-192h84v96H60a12 12 0 0 1-12-12v-12H12a12 12 0 0 1-12-12v-24a12 12 0 0 1 12-12h36v-12a12 12 0 0 1 12-12z m0-192h84v96H60a12 12 0 0 1-12-12v-12H12a12 12 0 0 1-12-12v-24a12 12 0 0 1 12-12h36v-12a12 12 0 0 1 12-12z m0-192h84v96H60a12 12 0 0 1-12-12v-12H12a12 12 0 0 1-12-12v-24a12 12 0 0 1 12-12h36v-12a12 12 0 0 1 12-12z" p-id="12550"></path></svg>