<svg t="1578641187825" class="icon" viewBox="0 0 1024 1024" version="1.1" xmlns="http://www.w3.org/2000/svg" p-id="1987" width="64" height="64"><path d="M894.88446839 847.02391052V272.6972074H129.11553161v574.32670312h765.76893678m0-765.76893786a95.72111682 95.72111682 0 0 1 95.72111792 95.72111682v670.04782104a95.72111682 95.72111682 0 0 1-95.72111792 95.72111682H129.11553161a95.72111682 95.72111682 0 0 1-95.72111792-95.72111682V176.97608948a95.72111682 95.72111682 0 0 1 95.72111792-95.72111682h765.76893678m-335.02390943 670.04781994v-95.72111682h239.30279259v95.72111682h-239.30279259m-163.68311039-191.44223364L204.25660788 368.41832422H339.70198906l157.93984337 157.93984335c18.66561785 18.66561785 18.66561785 49.29637572 0 67.96199358L340.65919987 751.3027926H205.21381977l190.9636288-191.44223364z" p-id="1988"></path></svg>