<svg t="1620377851518" class="icon" viewBox="0 0 1024 1024" version="1.1" xmlns="http://www.w3.org/2000/svg" p-id="2057" width="200" height="200"><path d="M416.896 64A406.698667 406.698667 0 0 0 405.333333 160.554667c0 223.850667 181.482667 405.333333 405.333334 405.333333 52.181333 0 102.058667-9.856 147.861333-27.818667C940.16 768.576 747.242667 949.888 512 949.888c-247.424 0-448-200.576-448-448C64 287.104 215.146667 107.605333 416.896 64zM832 138.666667c27.52 0 41.792 32.128 24.597333 52.48l-1.962666 2.133333-137.408 137.386667H832a32 32 0 0 1 31.850667 28.928L864 362.666667a32 32 0 0 1-28.928 31.850666L832 394.666667h-192c-27.52 0-41.792-32.128-24.597333-52.48l1.962666-2.133334 137.365334-137.386666H640a32 32 0 0 1-31.850667-28.928L608 170.666667a32 32 0 0 1 28.928-31.850667L640 138.666667h192z" p-id="2058"></path></svg>