<svg t="1578992055882" class="icon" viewBox="0 0 1024 1024" version="1.1" xmlns="http://www.w3.org/2000/svg" p-id="3618" width="64" height="64"><path d="M255.71 937.79h511.42V682.67H255.71v255.12z m596.46 0h86.21V341.33q0-9.32-6.99-25.05-6.99-15.72-13.98-23.87l-186.4-186.4q-5.82-6.99-22.71-13.98-16.9-6.99-26.22-5.82v277.26q0 25.63-18.05 44.85-18.06 19.22-46.02 19.22H234.74q-26.79 0-44.85-19.22-18.06-19.22-19.22-44.85V86.21H85.62v851.58h85.05V661.7q0-26.8 19.22-46.02 19.22-19.22 44.85-19.22h554.52q25.63 0 44.85 19.22 19.22 19.22 18.06 46.02v276.09zM597.04 320.36V107.18q0-9.32-5.83-15.15-5.82-5.83-15.14-5.83H447.93q-8.16 0-15.15 5.83t-5.82 15.15v213.18q0 8.16 5.82 15.15 5.83 6.99 15.15 5.82h128.14q8.16 0 15.15-5.82t5.82-15.14z m426.38 20.97v618.6q0 25.63-18.06 44.85Q987.3 1024 959.34 1024H64.66q-26.8 0-44.85-19.22T0.58 959.93V65.24q0-26.8 19.23-46.02Q39.04 0 64.66 0h617.42q26.8 0 59.42 14.56 32.62 14.56 50.09 30.87l186.39 187.56q18.64 17.48 32.04 50.09 13.4 32.62 13.4 58.25z" p-id="3619"></path></svg>