<svg t="1612239919837" class="icon" viewBox="0 0 1024 1024" version="1.1" xmlns="http://www.w3.org/2000/svg" p-id="2443" width="200" height="200"><path d="M424.592912 2.215634A381.980591 381.980591 0 0 0 175.72954 61.46011l215.949774 216.132627a19.565306 19.565306 0 0 1 5.668453 17.005359l-10.605493 74.969863a20.113865 20.113865 0 0 1-17.188212 17.188212l-74.969862 10.605493a19.565306 19.565306 0 0 1-17.005359-5.668453L61.446214 175.743437a383.991977 383.991977 0 0 0 470.115892 561.725407 40.227731 40.227731 0 0 1 43.51909 8.776959l253.983265 254.166118a80.821169 80.821169 0 0 0 114.100474 0l57.23309-57.23309a80.821169 80.821169 0 0 0 0-114.100473l-254.166119-253.983265a40.227731 40.227731 0 0 1-8.776959-43.519091A383.991977 383.991977 0 0 0 424.592912 2.215634z" p-id="2444"></path></svg>