<svg t="1611215716282" class="icon" viewBox="0 0 1024 1024" version="1.1" xmlns="http://www.w3.org/2000/svg" p-id="6844" width="200" height="200"><path d="M88.064 1008.64c-35.84-17.92-58.368-41.984-75.776-78.848l-12.288-26.112V119.296l15.36-31.232c17.92-35.84 41.984-58.368 78.848-75.776l26.112-12.288h783.36l26.112 12.288c36.864 17.408 60.928 39.936 78.848 75.776l15.36 31.232v784.384l-12.288 26.112c-17.408 36.864-39.936 60.928-75.776 78.848l-31.232 15.36H119.296l-31.232-15.36z m490.496-176.64v-74.24H419.84v148.48h158.72v-74.24z m-13.312-162.304c1.536-6.656 3.072-19.456 3.072-29.184 0-33.28 18.432-59.392 71.168-102.4 61.952-50.176 95.232-86.016 109.056-116.736 9.728-20.48 11.264-34.304 11.776-83.456 0-54.272-1.024-61.44-14.848-90.624-67.584-146.944-340.992-182.784-453.632-59.392-30.72 33.28-48.64 69.632-58.88 116.736-13.312 64-18.944 58.88 66.048 58.88h73.728l3.584-18.944c5.632-33.792 26.112-71.168 46.592-86.528 16.896-12.8 24.576-14.848 59.392-16.896 29.696-1.024 47.104 0.512 63.488 7.168 39.424 14.848 61.44 56.832 57.344 110.08-3.072 40.448-17.92 61.952-80.384 112.128-28.16 23.04-57.344 49.664-64.512 59.392-17.92 23.04-27.648 56.32-31.744 108.544l-3.072 42.496h69.12c67.584 0 69.632-0.512 72.704-11.264z" p-id="6845"></path></svg>