<svg t="1583457618023" class="icon" viewBox="0 0 1024 1024" version="1.1" xmlns="http://www.w3.org/2000/svg" p-id="4161" width="64" height="64"><path d="M716.8 972.8a307.2 307.2 0 1 1 0-614.4 307.2 307.2 0 0 1 0 614.4zM768 614.4V512a51.2 51.2 0 0 0-102.4 0v153.6a51.2 51.2 0 0 0 51.2 51.2h153.6a51.2 51.2 0 0 0 0-102.4H768zM76.8 51.2h870.4a76.8 76.8 0 0 1 0 153.6H76.8a76.8 76.8 0 0 1 0-153.6z m0 256h256a76.8 76.8 0 0 1 0 153.6h-256a76.8 76.8 0 0 1 0-153.6z m0 256h153.6a76.8 76.8 0 0 1 0 153.6H76.8a76.8 76.8 0 0 1 0-153.6z m0 256H128a76.8 76.8 0 0 1 0 153.6H76.8a76.8 76.8 0 0 1 0-153.6z" p-id="4162"></path></svg>