<svg t="1598926291970" class="icon" viewBox="0 0 1024 1024" version="1.1" xmlns="http://www.w3.org/2000/svg" p-id="34039" width="200" height="200"><path d="M512 128c0 0-263.936 227.84-411.424 351.232-8.672 7.84-15.232 19.296-15.232 32.768 0 23.584 19.072 42.656 42.656 42.656l85.344 0 0 298.656c0 23.584 19.072 42.656 42.656 42.656l128 0c23.584 0 42.656-19.104 42.656-42.656l0-170.656 170.656 0 0 170.656c0 23.552 19.072 42.656 42.656 42.656l128 0c23.584 0 42.656-19.072 42.656-42.656l0-298.656 85.344 0c23.584 0 42.656-19.072 42.656-42.656 0-13.472-6.56-24.928-16.352-32.768-146.464-123.392-410.336-351.232-410.336-351.232z" p-id="34040"></path></svg>