<svg t="1614780030135" class="icon" viewBox="0 0 1024 1024" version="1.1" xmlns="http://www.w3.org/2000/svg" p-id="2215" width="200" height="200"><path d="M511.49 0C229.038 0 0.004 229.248 0.004 512a507.563 507.563 0 0 0 102.314 307.2l17.707 22.187a511.275 511.275 0 0 0 787.712-6.144l12.97-16.043A507.563 507.563 0 0 0 1023.022 512c0-135.808-53.888-266.027-149.845-362.027A511.232 511.232 0 0 0 511.49 0z m375.126 297.301a432.427 432.427 0 0 1 55.21 174.763H734.894A953.173 953.173 0 0 0 718.168 332.8a1263.019 1263.019 0 0 0 168.448-35.499z m-48.768-68.266a1216 1216 0 0 1-136.405 26.624 1144.875 1144.875 0 0 0-56.62-153.259 432 432 0 0 1 192.684 126.293l0.34 0.342zM471.896 81.579a438.443 438.443 0 0 1 79.104 0 1235.712 1235.712 0 0 1 68.224 181.93 1379.204 1379.204 0 0 1-216.533 0 1237.391 1237.391 0 0 1 69.205-181.93zM639.02 341.333a876.373 876.373 0 0 1 16.384 130.39H367.62c2.304-43.819 7.85-87.424 16.682-130.39a1426.347 1426.347 0 0 0 254.72 0zM378.157 102.4a1152.427 1152.427 0 0 0-54.528 151.552 1194.88 1194.88 0 0 1-134.4-27.99A433.365 433.365 0 0 1 378.2 102.4zM139.523 293.888c54.912 15.787 110.848 27.733 167.424 35.84a949.76 949.76 0 0 0-17.067 142.336H81.496c5.845-63.488 25.6-124.928 57.984-179.883v1.707z m10.922 456.704a430.336 430.336 0 0 1-68.224-197.29h205.952a956.587 956.587 0 0 0 21.163 162.133 1248.384 1248.384 0 0 0-158.89 33.792v1.365z m54.528 68.267c41.046-10.496 82.603-18.774 124.502-24.918A1173.547 1173.547 0 0 0 378.157 921.6 436.053 436.053 0 0 1 204.59 816.128l0.342 2.73z m346.112 126.293a437.38 437.38 0 0 1-79.104 0 1263.701 1263.701 0 0 1-62.72-162.816 1364.41 1364.41 0 0 1 204.587 0 1259.563 1259.563 0 0 1-62.72 160.085v2.731zM388.781 706.219a878.037 878.037 0 0 1-20.778-152.235h287.445a880.427 880.427 0 0 1-20.48 150.528 1433.173 1433.173 0 0 0-246.187-0.341v2.048zM644.867 921.6a1149.995 1149.995 0 0 0 49.493-134.485c42.965 5.589 85.675 13.44 127.83 23.552A435.413 435.413 0 0 1 644.866 921.6z m230.869-178.859a1269.163 1269.163 0 0 0-161.28-34.133c11.221-52.48 18.09-105.813 20.48-159.403H941.57a431.744 431.744 0 0 1-65.835 194.902v-1.366z" p-id="2216"></path></svg>