<svg t="1578300892927" class="icon" viewBox="0 0 1152 1024" version="1.1" xmlns="http://www.w3.org/2000/svg" p-id="5874" width="64" height="64"><path d="M352 185.6h704c38.4 0 64-25.6 64-64s-25.6-64-64-64h-704c-38.4 0-64 25.6-64 64s25.6 64 64 64z" p-id="5875"></path><path d="M96 121.6m-64 0a64 64 0 1 0 128 0 64 64 0 1 0-128 0Z" p-id="5876"></path><path d="M1056 441.6h-704c-38.4 0-64 25.6-64 64s25.6 64 64 64h704c38.4 0 64-25.6 64-64s-25.6-64-64-64z" p-id="5877"></path><path d="M96 505.6m-64 0a64 64 0 1 0 128 0 64 64 0 1 0-128 0Z" p-id="5878"></path><path d="M1056 825.6h-704c-38.4 0-64 25.6-64 64s25.6 64 64 64h704c38.4 0 64-25.6 64-64s-25.6-64-64-64z" p-id="5879"></path><path d="M96 889.6m-64 0a64 64 0 1 0 128 0 64 64 0 1 0-128 0Z" p-id="5880"></path></svg>