<svg t="1584685835791" class="icon" viewBox="0 0 1024 1024" version="1.1" xmlns="http://www.w3.org/2000/svg" p-id="5571" width="200" height="200"><path d="M828.875 765.657c-191.159-16.86-202.516-102.922-202.516-102.922v-85.997c111.656-43.063 145.76-207.699 145.76-207.699 0-65.457-32.153-67.281-32.153-67.281V195.093c7.486-177.753-100.33-136.61-102.25-136.61-1.791 0-60.466-46.774-60.466-46.774-41.751-31.8-134.499 11.262-134.499 11.262l-3.839 0.064c-104.937 2.751-132.387 78.479-132.387 78.479l1.92 196.437c-54.804 0-47.35 76.719-47.35 76.719 0 84.142 147.616 200.148 147.616 200.148 9.47 110.472-49.174 166.46-49.174 166.46s-100.266 3.711-213.84 37.432c-2.72 0.863-5.344 1.6-7.967 2.463C30.617 817.421 0 920.855 0 920.855v101.033l463.579 1.888 68.465-1.92h491.732V943.25c1.92-115.815-194.901-177.593-194.901-177.593z m-244.65 129.22l-71.25 128.675-69.616-128.676-16.124-64.05 30.68-136.354h111.656l29.178 136.354-14.525 64.05z" p-id="5572"></path></svg>
