<svg t="1578300529444" class="icon" viewBox="0 0 1025 1024" version="1.1" xmlns="http://www.w3.org/2000/svg" p-id="3308" width="64" height="64"><path d="M905.975 737v-168.75c0-31.331-25.144-56.25-56.25-56.25-0.113 0-0.113 0-0.225 0s-0.113 0-0.225 0h-280.8v-112.5h112.5v-337.5h-337.5v337.5h112.5v112.5h-280.913c-0.056 0-0.112 0-0.169 0s-0.169 0-0.225 0c-31.275 0-56.25 25.144-56.25 56.25v168.75h-56.25v225h225v-225h-56.25v-112.5h225v112.5h-56.25v225h225v-225h-56.25v-112.5h225v112.5h-56.25v225h225v-225h-56.194z" p-id="3309"></path></svg>