<svg t="1611646800895" class="icon" viewBox="0 0 1024 1024" version="1.1" xmlns="http://www.w3.org/2000/svg" p-id="3894" width="200" height="200"><path d="M936.432 603.424q0 2.848-0.576 4-36.576 153.152-153.152 248.288t-273.152 95.136q-83.424 0-161.44-31.424t-139.136-89.728l-73.728 73.728q-10.848 10.848-25.728 10.848t-25.728-10.848-10.848-25.728l0-256q0-14.848 10.848-25.728t25.728-10.848l256 0q14.848 0 25.728 10.848t10.848 25.728-10.848 25.728l-78.272 78.272q40.576 37.728 92 58.272t106.848 20.576q76.576 0 142.848-37.152t106.272-102.272q6.272-9.728 30.272-66.848 4.576-13.152 17.152-13.152l109.728 0q7.424 0 12.864 5.44t5.44 12.864zM950.736 146.272l0 256q0 14.848-10.848 25.728t-25.728 10.848l-256 0q-14.848 0-25.728-10.848t-10.848-25.728 10.848-25.728l78.848-78.848q-84.576-78.272-199.424-78.272-76.576 0-142.848 37.152t-106.272 102.272q-6.272 9.728-30.272 66.848-4.576 13.152-17.152 13.152l-113.728 0q-7.424 0-12.864-5.44t-5.44-12.864l0-4q37.152-153.152 154.272-248.288t274.272-95.136q83.424 0 162.272 31.712t140 89.44l74.272-73.728q10.848-10.848 25.728-10.848t25.728 10.848 10.848 25.728z" p-id="3895"></path></svg>