<svg t="1611647678162" class="icon" viewBox="0 0 1024 1024" version="1.1" xmlns="http://www.w3.org/2000/svg" p-id="11424" width="200" height="200"><path d="M112.4352 292.4032a25.6 25.6 0 0 1 14.848 4.7616l369.8688 263.8848a25.6 25.6 0 0 0 29.696 0l369.8688-263.8848a25.6 25.6 0 0 1 40.448 20.8384v431.1552c0 38.7072-31.3344 70.0416-69.9904 70.0416H156.8256a70.0416 70.0416 0 0 1-69.9904-70.0416V318.0032a25.6 25.6 0 0 1 25.6-25.6zM889.856 204.8a15.0016 15.0016 0 0 1 11.264 24.9856l-2.6112 2.304-371.712 262.0928a25.6 25.6 0 0 1-25.6 2.304l-3.9424-2.304-371.7632-262.144a15.0016 15.0016 0 0 1 5.2224-26.8288L134.144 204.8h755.712z" p-id="11425"></path></svg>