<svg t="1595942540682" class="icon" viewBox="0 0 1024 1024" version="1.1" xmlns="http://www.w3.org/2000/svg" p-id="2171"><path d="M714.418605 867.508306v-23.813954l57.833887-30.61794 3.401993-3.401993 102.059801-102.059801c3.401993-3.401993 6.803987-10.20598 3.401993-17.009967 0-6.803987-6.803987-10.20598-13.607973-13.607973l-136.079735-34.019934c-6.803987-3.401993-13.607973 0-17.009966 6.803987l-224.531562 319.787375-207.521594-319.787375c0-3.401993-6.803987-3.401993-13.607974-3.401993l-119.069767 34.019933c-6.803987 0-10.20598 6.803987-10.20598 13.607974s0 13.607973 3.401993 17.009966l102.059801 102.059801 3.401993 3.401993 57.833887 27.215947v23.813954c0 6.803987 3.401993 10.20598 6.803987 13.607973l170.099667 136.079734s3.401993 0 3.401994 3.401994h13.607973s3.401993 0 3.401994-3.401994l204.119601-136.079734c3.401993-3.401993 6.803987-6.803987 6.803987-13.607973zM881.116279 772.252492c-6.803987-3.401993-13.607973-3.401993-20.41196 3.401993l-57.833887 57.833887c-3.401993 3.401993-6.803987 6.803987-13.607974 10.20598l-30.61794 17.009967c-6.803987 3.401993-10.20598 6.803987-10.20598 13.607973-3.401993 13.607973-10.20598 27.215947-23.813953 37.421927l-119.069768 78.245847c-6.803987 3.401993-10.20598 10.20598-6.803986 20.411961s10.20598 13.607973 17.009966 13.607973h387.827243c10.20598 0 17.009967-6.803987 17.009967-17.009967 0-95.255814-54.431894-183.707641-139.481728-234.737541zM292.571429 908.332226c-10.20598-6.803987-17.009967-20.41196-20.411961-34.019934 0-6.803987-3.401993-10.20598-10.20598-13.607973l-30.61794-17.009967c-3.401993-3.401993-10.20598-6.803987-13.607973-10.20598l-61.235881-61.23588c-6.803987-6.803987-13.607973-6.803987-20.41196-3.401994-85.049834 47.627907-136.079734 136.079734-136.079734 231.335549 0 13.607973 6.803987 20.41196 17.009967 20.41196h367.415282c6.803987 0 13.607973-3.401993 17.009967-10.20598s0-13.607973-6.803987-20.411961l-102.0598-81.64784z" fill="" p-id="2172"></path><path d="M238.139535 350.405316c-20.41196 17.009967-34.019934 51.0299-34.019934 91.85382 0 57.833887 27.215947 102.059801 61.235881 102.059801 37.421927 122.471761 136.079734 204.119601 244.943521 204.119601s210.923588-81.647841 244.943522-204.119601c34.019934 0 61.23588-44.225914 61.23588-102.059801 0-37.421927-17.009967-71.44186-37.421927-91.85382C857.302326 336.797342 918.538206 312.983389 918.538206 272.159468c0-23.813953-20.41196-54.431894-170.099668-78.245847-34.019934-102.059801-95.255814-193.913621-153.089701-193.913621-40.82392 0-68.039867 17.009967-85.049834 27.215947-17.009967-10.20598-44.225914-27.215947-85.049834-27.215947-54.431894 0-129.275748 85.049834-166.697674 187.109635h-6.803987C153.089701 204.119601 102.059801 234.737542 102.059801 272.159468s57.833887 64.637874 136.079734 78.245848z m500.093023 23.813953h10.20598c10.20598 0 34.019934 27.215947 34.019934 68.039867s-17.009967 68.039867-27.215947 68.039867h-3.401993c-3.401993-3.401993-10.20598-3.401993-17.009967 0s-10.20598 6.803987-10.20598 10.20598c-23.813953 112.265781-115.667774 193.913621-214.325582 193.913622s-190.511628-81.647841-217.727574-193.913622c0-6.803987-3.401993-10.20598-10.20598-10.20598-3.401993-3.401993-10.20598 0-17.009967 0h-3.401994c-6.803987 0-23.813953-27.215947-23.813953-68.039867s17.009967-68.039867 23.813953-68.039867H272.159468c10.20598 0 17.009967-6.803987 17.009967-13.607973 10.20598 0 23.813953 3.401993 34.019934 3.401993-13.607973 17.009967-17.009967 37.421927-17.009967 61.23588 0 40.82392 27.215947 85.049834 85.049834 85.049834 54.431894 0 119.069767-37.421927 119.069767-85.049834 0 47.627907 64.637874 85.049834 119.069768 85.049834 57.833887 0 85.049834-44.225914 85.049834-85.049834 0-23.813953-3.401993-44.225914-20.41196-61.23588 10.20598 0 17.009967-3.401993 27.215946-3.401993 3.401993 6.803987 10.20598 13.607973 17.009967 13.607973zM510.299003 418.445183c0-13.607973 0-30.61794-6.803986-44.225914h13.607973c-6.803987 13.607973-6.803987 30.61794-6.803987 44.225914zM312.983389 156.491694c6.803987-6.803987 17.009967-3.401993 23.813953 3.401994 0 0 40.82392 44.225914 159.893688 44.225913 122.471761 0 173.501661-47.627907 173.501661-47.627907 6.803987-6.803987 17.009967-6.803987 23.813954 0 6.803987 6.803987 6.803987 17.009967 0 23.813954-3.401993 3.401993-64.637874 57.833887-200.717608 57.833887S309.581395 183.707641 309.581395 180.305648c-6.803987-6.803987-3.401993-17.009967 3.401994-23.813954z" fill="" p-id="2173"></path></svg>