<svg t="1610079996432" class="icon" viewBox="0 0 1024 1024" version="1.1" xmlns="http://www.w3.org/2000/svg" p-id="20520" width="200" height="200"><path d="M631 602.1c0 32.8-26.6 59.4-59.5 59.4h-119c-32.9 0-59.5-26.6-59.5-59.4V545H128v356.6c0 32.3 26.4 58.4 59.1 58.4h649.8c32.7 0 59.1-26.1 59.1-58.4V545H631v57.1z m181.8-327.4V142c0-43-41.1-78-91.7-78H302.9c-50.6 0-91.7 35-91.7 78v132.6H64V514h329v-90c0-32.8 26.6-59.4 59.5-59.4h119c32.9 0 59.5 26.6 59.5 59.4v90h329V274.7H812.8z m-64 0H275.2V142c0-13 12.4-23.6 27.7-23.6H721c15.3 0 27.7 10.6 27.7 23.6v132.7z" p-id="20521"></path></svg>