<svg t="1596509630071" class="icon" viewBox="0 0 1024 1024" version="1.1" xmlns="http://www.w3.org/2000/svg" p-id="3442" width="200" height="200"><path d="M665.821007 506.327482a348.97036 348.97036 0 0 0-87.371511-54.220432 228.374101 228.374101 0 1 0-239.719136 0C192.276259 514.504748 86.561151 687.774388 86.561151 891.395683a29.467626 29.467626 0 0 0 29.467626 29.467626h368.345324a276.111655 276.111655 0 0 1 181.446906-414.535827z" p-id="3443"></path><path d="M873.862446 623.461295a217.323741 217.323741 0 1 0 0 307.494676 217.544748 217.544748 0 0 0 0-307.494676z m-40.296978 267.197698a160.598561 160.598561 0 1 1 46.927194-113.45036 159.493525 159.493525 0 0 1-46.927194 113.45036z" p-id="3444"></path><path d="M840.343022 712.821871a29.467626 29.467626 0 0 0-41.623022 0L692.489209 820.231367l-50.536979-50.905324a29.467626 29.467626 0 0 0-41.770359 41.549353l53.704748 54.146762a54.36777 54.36777 0 0 0 77.13151 0l109.840576-110.503597a29.467626 29.467626 0 0 0-0.515683-41.69669z" p-id="3445"></path></svg>